HIERARCHY
ROOT Hips
{
  OFFSET 3.13124 94.3669 -3.18751
  CHANNELS  6 Xposition Yposition Zposition Zrotation Xrotation Yrotation
  JOINT LeftUpLeg
  {
    OFFSET 8.64259 1.95398 -2.38835
    CHANNELS 3 Zrotation Xrotation Yrotation
    JOINT LeftLeg
    {
      OFFSET 43.7702 0 0
      CHANNELS 3 Zrotation Xrotation Yrotation
      JOINT LeftFoot
      {
        OFFSET 40.6238 0 0
        CHANNELS 3 Zrotation Xrotation Yrotation
        JOINT LeftToeBase
        {
          OFFSET 12.7242 0 0
          CHANNELS 3 Zrotation Xrotation Yrotation
          End Site
          {
            OFFSET 0 0 0
          }
        }
      }
    }
  }
  JOINT RightUpLeg
  {
    OFFSET -8.2249 1.95398 -2.59336
    CHANNELS 3 Zrotation Xrotation Yrotation
    JOINT RightLeg
    {
      OFFSET 43.5653 0 0
      CHANNELS 3 Zrotation Xrotation Yrotation
      JOINT RightFoot
      {
        OFFSET 40.6238 0 0
        CHANNELS 3 Zrotation Xrotation Yrotation
        JOINT RightToeBase
        {
          OFFSET 12.7242 0 0
          CHANNELS 3 Zrotation Xrotation Yrotation
          End Site
          {
            OFFSET 0 0 0
          }
        }
      }
    }
  }
  JOINT Spine
  {
    OFFSET 0.165834 0.87714 6.61349
    CHANNELS 3 Zrotation Xrotation Yrotation
    JOINT Spine1
    {
      OFFSET 7.38962 1.71661e-005 0
      CHANNELS 3 Zrotation Xrotation Yrotation
      JOINT Spine2
      {
        OFFSET 11.9445 1.14441e-005 0
        CHANNELS 3 Zrotation Xrotation Yrotation
        JOINT Spine3
        {
          OFFSET 14.7254 4.19617e-005 0
          CHANNELS 3 Zrotation Xrotation Yrotation
          JOINT Spine4
          {
            OFFSET 10.9679 0 0
            CHANNELS 3 Zrotation Xrotation Yrotation
            JOINT RightShoulder
            {
              OFFSET 2.46616 -1.6653 3.69651
              CHANNELS 3 Zrotation Xrotation Yrotation
              JOINT RightArm
              {
                OFFSET 13.0012 0 0
                CHANNELS 3 Zrotation Xrotation Yrotation
                JOINT RightForeArm
                {
                  OFFSET 28.7848 1.52588e-005 0
                  CHANNELS 3 Zrotation Xrotation Yrotation
                  JOINT RightHand
                  {
                    OFFSET 26.5688 1.52588e-005 0
                    CHANNELS 3 Zrotation Xrotation Yrotation
                    End Site
                    {
                      OFFSET 0 0 0
                    }
                  }
                }
              }
            }
            JOINT LeftShoulder
            {
              OFFSET 2.38034 -1.29275 -3.75231
              CHANNELS 3 Zrotation Xrotation Yrotation
              JOINT LeftArm
              {
                OFFSET 16.3182 6.10352e-005 0
                CHANNELS 3 Zrotation Xrotation Yrotation
                JOINT LeftForeArm
                {
                  OFFSET 27.0901 0 0
                  CHANNELS 3 Zrotation Xrotation Yrotation
                  JOINT LeftHand
                  {
                    OFFSET 24.5451 1.52588e-005 0
                    CHANNELS 3 Zrotation Xrotation Yrotation
                    End Site
                    {
                      OFFSET 0 0 0
                    }
                  }
                }
              }
            }
            JOINT Neck
            {
              OFFSET 5.0226 -0.0266342 0
              CHANNELS 3 Zrotation Xrotation Yrotation
              JOINT Head
              {
                OFFSET 6.69363 2.86102e-005 0
                CHANNELS 3 Zrotation Xrotation Yrotation
                End Site
                {
                  OFFSET 0 0 0
                }
              }
            }
          }
        }
      }
    }
  }
}
MOTION
Frames:	6
Frame Time:	0.0333333
96.171 97.7505 81.3075 -86.3762 -43.1398 -104.063 -148.387 28.9075 92.4776 -70.8088 22.113 -9.48563 12.0881 -6.67169 -12.4072 28.7808 4.6056e-006 1.81906e-006 167.217 16.0825 83.7702 -8.49873 7.32434 1.09487 61.5692 2.78739 1.7326 28.7808 1.43832e-005 2.56328e-005 -1.2925 11.8699 -87.2827 3.03002 -1.04522 -1.20295 -8.641 -1.09716 -1.15578 -31.1733 -0.635421 -1.46141 -11.1607 -0.635405 -1.46142 94.5954 -21.1084 -100.115 21.3366 16.5245 -86.279 -3.35795 -0.211519 -48.7147 -5.37983 -0.320012 -0.016239 -92.969 -19.7677 62.7304 -26.6358 -33.4295 -82.4166 2.73665 -6.07798 -43.7594 -16.9379 1.45593 -16.4344 43.5865 -12.8048 -27.1983 -51.4273 -12.4598 32.5849 
98.5315 96.5687 81.8386 -84.8823 -40.2968 -99.3893 -153.051 26.7208 92.6912 -67.4932 10.9846 -9.93085 18.5976 -6.37365 -10.4034 28.7808 4.6056e-006 1.81906e-006 168.5 18.0998 87.1905 -10.6288 7.95364 1.32483 65.0899 0.977648 0.518039 28.7808 1.43832e-005 2.56328e-005 -0.96615 12.128 -88.9993 2.53789 -1.29386 -2.85282 -9.1354 -1.4181 -2.79318 -31.6463 -0.377111 -3.10952 -11.6337 -0.377091 -3.10954 91.718 -25.8141 -104.831 21.6041 15.7278 -82.217 -3.36189 -0.215669 -49.7654 -5.37983 -0.320012 -0.016239 -98.5589 -29.1925 57.0166 -36.3458 -25.8741 -88.9231 12.5545 -0.540181 -44.4242 -17.6402 0.957159 -12.1937 56.7825 -10.8387 -17.9296 -60.4215 -11.5643 24.4494 
100.839 95.3509 82.6768 -82.4694 -37.9003 -94.8171 -158.619 26.1792 91.1482 -66.1155 -1.42347 -10.5103 25.3885 -6.28421 -8.87924 28.7808 4.6056e-006 1.81906e-006 169.435 23.4394 89.7363 -16.8657 8.10363 1.55229 67.5731 2.10144 1.0408 28.7808 1.43832e-005 2.56328e-005 -0.76629 12.2076 -90.5232 2.35584 -1.73197 -4.82188 -9.32259 -1.94229 -4.74124 -31.7865 -0.204839 -5.11873 -11.7739 -0.204842 -5.11873 90.887 -25.7813 -106.604 22.3594 15.3477 -75.3351 -3.36554 -0.219439 -50.7372 -5.37983 -0.320012 -0.016239 -102.487 -35.9078 53.905 -42.4063 -16.9986 -89.0545 14.7393 2.00892 -40.4579 -5.24224 0.0526563 -20.1555 66.3478 -2.62226 -4.45275 -65.9282 -6.78315 12.5226 
102.807 94.2744 83.4619 -80.797 -34.7128 -90.7092 -163.043 25.4633 90.0166 -64.4141 -13.585 -11.1668 31.0989 -5.82757 -7.38076 28.7808 4.6056e-006 1.81906e-006 170.158 27.1998 92.5273 -20.6097 7.3344 1.96069 67.6885 2.28615 1.13153 28.7808 1.43832e-005 2.56328e-005 -0.616601 12.464 -91.783 1.80395 -1.96749 -6.91607 -9.8834 -2.26926 -6.82342 -32.271 0.196151 -7.18652 -12.2583 0.196175 -7.18649 92.908 -23.2789 -103.204 22.8782 14.0085 -69.2169 -3.37258 -0.226195 -52.5364 -5.37983 -0.320012 -0.016239 -103.025 -40.7894 55.5337 -41.7153 -8.20928 -86.7619 1.08513 -7.48944 -32.734 26.921 -9.38193 -39.8308 75.1628 7.972 8.20979 -70.7157 -1.23882 0.889427 
104.523 93.4245 84.2592 -79.5183 -32.4154 -88.313 -166.229 25.5969 87.7511 -65.0305 -23.9034 -13.5394 37.359 -4.0288 -4.7455 28.7808 4.6056e-006 1.81906e-006 169.999 30.4114 93.7626 -23.5184 6.55779 2.59106 68.0947 3.40653 1.70428 28.7808 1.43832e-005 2.56328e-005 -0.730456 12.5923 -92.8532 1.45675 -2.65718 -9.00799 -10.2418 -3.04948 -8.88377 -32.5267 0.159781 -9.38726 -12.5141 0.159778 -9.38729 95.5293 -13.2152 -100.657 23.9693 12.7533 -60.0398 -3.3732 -0.226852 -52.7018 -5.37983 -0.320012 -0.016239 -105.528 -48.7044 55.5374 -40.742 0.648711 -85.8108 -8.29618 -18.9894 -29.8298 35.2988 -9.51303 -31.4136 73.9027 20.0985 22.9397 -68.9357 4.73946 -11.6455 
105.944 92.5484 84.682 -79.4047 -30.3052 -86.7934 -168.375 24.8453 85.7053 -63.9737 -28.1645 -15.0142 43.8251 -3.38042 -3.50627 28.7808 4.6056e-006 1.81906e-006 170.239 32.5744 95.2284 -26.0741 6.3592 2.72486 68.5708 3.57699 1.77185 28.7808 1.43832e-005 2.56328e-005 -0.727687 12.7052 -93.82 1.1611 -3.09404 -10.5318 -10.5476 -3.55207 -10.3878 -32.7411 0.193271 -10.9703 -12.7284 0.193249 -10.9703 97.3747 -4.13551 -98.9777 25.4862 9.3714 -49.0952 -3.38171 -0.234449 -54.8064 -5.37983 -0.320012 -0.016239 -109.362 -52.4908 51.9415 -41.7363 6.20002 -83.7169 -6.41014 -18.4892 -23.3031 30.9022 -5.28806 -21.7187 70.0337 24.8758 32.3106 -65.6247 6.0033 -18.5946 
